<svg viewBox="0 0 120 120" fill="none" xmlns="http://www.w3.org/2000/svg" role="img" aria-label="Nile">
  <defs>
    <linearGradient id="nGold" x1="0" y1="0" x2="0" y2="1">
      <stop offset="0" stop-color="#d7a832"/><stop offset="0.5" stop-color="#e3c470"/><stop offset="1" stop-color="#edd9a8"/>
    </linearGradient>
    <linearGradient id="nBase" x1="0" y1="0.42" x2="0" y2="1">
      <stop offset="0" stop-color="#fbf4ee"/><stop offset="1" stop-color="#ffffff"/>
    </linearGradient>
    <linearGradient id="nLine" x1="0" y1="0" x2="1" y2="0">
      <stop offset="0" stop-color="#6b4a1c"/><stop offset="1" stop-color="#2a2018"/>
    </linearGradient>
    <clipPath id="nDisc"><circle cx="60" cy="60" r="56"/></clipPath>
  </defs>
  <g clip-path="url(#nDisc)">
    <rect x="0" y="0" width="120" height="120" fill="#ffffff"/>
    <path d="M0,70 C30,52 44,52 60,68 C76,84 90,84 120,66 L120,120 L0,120 Z" fill="url(#nBase)"/>
    <path d="M0,70 C30,52 44,52 60,68 C76,84 90,84 120,66 L120,0 L0,0 Z" fill="url(#nGold)"/>
    <path d="M0,70 C30,52 44,52 60,68 C76,84 90,84 120,66" stroke="url(#nLine)" stroke-width="4.5" fill="none" stroke-linecap="round"/>
  </g>
  <circle cx="60" cy="60" r="56" fill="none" stroke="#e6dcc9" stroke-width="1.5"/>
</svg>
